# xmcd
#
# Track frame offsets: 
#        150
#        14283
#        26780
#        39696
#        52886
#        66130
#        80517
#        93183
#        106323
#        118629
#        132771
#        147179
#        159412
#        173121
#        186715
#        199803
#        214135
#        226518
#        241053
#        254225
#
# Disc length: 3571 seconds
#
# Revision: 8
# Processed by: cddbd v1.5.2PL0 Copyright (c) Steve Scherf et al.
# Submitted via: ExactAudioCopy v0.95b4
#
DISCID=140df114
DTITLE=Arthur 'Big Boy' Crudup - Chicago Blues
DYEAR=1900
DGENRE=Blues
TTITLE0=Ethel Mae
TTITLE1=So Glad You're Mine
TTITLE2=That's All Right
TTITLE3=You Got To Reap
TTITLE4=I Want My Lovin'
TTITLE5=Chicago Blues
TTITLE6=I Don't Know It
TTITLE7=Crudup's After Hours
TTITLE8=Train Fare Blues
TTITLE9=Cry Your Blues Away
TTITLE10=Crudup's Vicksburg Blues
TTITLE11=Gonna Be Some Changes Made
TTITLE12=Katie May
TTITLE13=Hoodoo Lady Blues
TTITLE14=Hey, Mama Everything's All Right
TTITLE15=Lonesome World To Me
TTITLE16=Roberta Blues
TTITLE17=Just Like A Spider
TTITLE18=Some Day
TTITLE19=That's Why I'm Lonesome
EXTD=
EXTT0=
EXTT1=
EXTT2=
EXTT3=
EXTT4=
EXTT5=
EXTT6=
EXTT7=
EXTT8=
EXTT9=
EXTT10=
EXTT11=
EXTT12=
EXTT13=
EXTT14=
EXTT15=
EXTT16=
EXTT17=
EXTT18=
EXTT19=
PLAYORDER=
